<?xml version="1.0" encoding="UTF-8"?>
<svg version="1.1" xmlns="http://www.w3.org/2000/svg" width="1024" height="1024">
<path d="M0 0 C337.92 0 675.84 0 1024 0 C1024 337.92 1024 675.84 1024 1024 C686.08 1024 348.16 1024 0 1024 C0 686.08 0 348.16 0 0 Z " fill="#F9F8F5" transform="translate(0,0)"/>
<path d="M0 0 C104.28 0 208.56 0 316 0 C316 27.39 316 54.78 316 83 C278.05 83 240.1 83 201 83 C201 189.59 201 296.18 201 406 C171.3 406 141.6 406 111 406 C111 299.41 111 192.82 111 83 C74.37 83 37.74 83 0 83 C0 55.61 0 28.22 0 0 Z " fill="#226B71" transform="translate(236,224)"/>
<path d="M0 0 C30.36 0 60.72 0 92 0 C92 133.98 92 267.96 92 406 C61.64 406 31.28 406 0 406 C0 353.2 0 300.4 0 246 C-62.7 246 -125.4 246 -190 246 C-190 218.28 -190 190.56 -190 162 C-127.3 162 -64.6 162 0 162 C0 108.54 0 55.08 0 0 Z " fill="#12283F" transform="translate(665,224)"/>
<path d="M0 0 C0.92506348 0.00950684 1.85012695 0.01901367 2.80322266 0.02880859 C9.71396083 0.2400752 14.9679742 1.29031666 20.5625 5.5625 C21.53509766 6.23152344 21.53509766 6.23152344 22.52734375 6.9140625 C30.80797038 13.18142895 33.93386299 22.62781426 35.5625 32.5625 C36.6474233 42.52527127 35.28504893 53.07009481 29.57421875 61.49609375 C23.35468646 68.72536013 16.29340362 74.4354296 6.5625 75.5625 C-7.51540327 76.34553131 -16.69320343 75.15740671 -27.4375 65.5625 C-34.57704297 58.14780223 -36.39513343 48.02340222 -36.4609375 37.98828125 C-35.93102917 29.53918737 -34.55575501 22.05023638 -30.4375 14.5625 C-29.7775 14.5625 -29.1175 14.5625 -28.4375 14.5625 C-28.17066406 13.964375 -27.90382813 13.36625 -27.62890625 12.75 C-26.40968383 10.51142769 -25.28710378 9.22598509 -23.375 7.5625 C-22.84777344 7.088125 -22.32054687 6.61375 -21.77734375 6.125 C-14.74688155 1.43020053 -8.40225181 -0.1389938 0 0 Z " fill="#112439" transform="translate(310.4375,725.4375)"/>
<path d="M0 0 C6.27 -0.061875 12.54 -0.12375 19 -0.1875 C21.94486328 -0.22846802 21.94486328 -0.22846802 24.94921875 -0.27026367 C26.5286396 -0.27903648 28.10806731 -0.28667853 29.6875 -0.29296875 C30.88922852 -0.3159906 30.88922852 -0.3159906 32.11523438 -0.33947754 C38.81585264 -0.34254934 43.96914711 1.14015846 49.75 4.6875 C54.3483818 9.41361463 56.2394337 14.02099201 56.5 20.625 C56.31844296 25.48669412 55.21120303 28.23830502 52 32 C51.4225 32.78375 50.845 33.5675 50.25 34.375 C49.8375 34.91125 49.425 35.4475 49 36 C49.928125 36.680625 50.85625 37.36125 51.8125 38.0625 C56.21060947 41.81596931 57.70347242 45.42021007 58.3515625 51.05859375 C58.6304997 57.4080852 58.35520805 62.22267439 54.5 67.4140625 C51.06988956 71.04068968 47.0554326 73.8191048 41.96882629 74.12025452 C41.19383286 74.11803391 40.41883942 74.11581329 39.62036133 74.11352539 C38.28092468 74.11334412 38.28092468 74.11334412 36.91442871 74.11315918 C35.97973755 74.10804321 35.04504639 74.10292725 34.08203125 74.09765625 C33.22009155 74.09664917 32.35815186 74.09564209 31.47009277 74.09460449 C28.25088165 74.08937322 25.03168948 74.07541195 21.8125 74.0625 C14.614375 74.041875 7.41625 74.02125 0 74 C0 49.58 0 25.16 0 0 Z " fill="#122439" transform="translate(847,726)"/>
<path d="M0 0 C0.9688916 -0.02280029 1.9377832 -0.04560059 2.93603516 -0.0690918 C11.31059005 0.01821709 17.79266187 2.39824625 24.09375 7.9765625 C24.7021875 8.72679687 25.310625 9.47703125 25.9375 10.25 C26.5665625 11.00539063 27.195625 11.76078125 27.84375 12.5390625 C31.4375 17.24264706 31.4375 17.24264706 31.4375 21.625 C29.68933142 22.13136607 27.93887737 22.62984619 26.1875 23.125 C25.21296875 23.4034375 24.2384375 23.681875 23.234375 23.96875 C20.4375 24.625 20.4375 24.625 16.4375 24.625 C14.9375 22.125 14.9375 22.125 13.4375 19.625 C10.49199373 16.31242456 7.73904499 14.81515015 3.3359375 14.171875 C-3.45066638 13.95345556 -8.28420744 14.22642287 -13.5625 18.625 C-20.10984968 26.68063966 -20.21349907 35.57068105 -19.5625 45.625 C-18.56129842 51.34372766 -16.53500585 55.66604361 -12.1484375 59.5390625 C-9.58110643 61.2969887 -7.67052014 61.50771622 -4.5625 61.625 C-3.26892578 61.71587891 -3.26892578 61.71587891 -1.94921875 61.80859375 C2.67602169 62.01513358 5.71288219 61.9743693 9.9375 59.9375 C14.16737913 56.0248618 15.2997193 53.31390349 16.4375 47.625 C10.1675 47.625 3.8975 47.625 -2.5625 47.625 C-2.5625 43.335 -2.5625 39.045 -2.5625 34.625 C8.9875 34.625 20.5375 34.625 32.4375 34.625 C32.4375 50.28207965 32.4375 50.28207965 31.75 57.1875 C31.66975586 58.33702148 31.66975586 58.33702148 31.58789062 59.50976562 C31.22576959 63.12782712 30.79409673 65.23497233 28.3125 67.94921875 C15.51014845 75.41145899 3.06536776 77.3769871 -11.5 75 C-20.58866788 72.5196956 -27.05334282 65.90636973 -32.1171875 58.28515625 C-38.3010169 46.90356754 -37.21184209 33.32333395 -33.65234375 21.28125 C-31.72932255 16.5943166 -28.95068328 12.38874094 -25.5625 8.625 C-24.9025 8.625 -24.2425 8.625 -23.5625 8.625 C-23.2325 7.635 -22.9025 6.645 -22.5625 5.625 C-15.99514463 0.25308489 -8.09847471 0.09519237 0 0 Z " fill="#112439" transform="translate(477.5625,725.375)"/>
<path d="M0 0 C4.95 0 9.9 0 15 0 C15 9.9 15 19.8 15 30 C24.9 30 34.8 30 45 30 C45 20.1 45 10.2 45 0 C49.95 0 54.9 0 60 0 C60 24.42 60 48.84 60 74 C55.05 74 50.1 74 45 74 C45 63.77 45 53.54 45 43 C35.1 43 25.2 43 15 43 C15 53.56 15 64.12 15 75 C10.05 75 5.1 75 0 75 C0 50.25 0 25.5 0 0 Z " fill="#12253A" transform="translate(530,726)"/>
<path d="M0 0 C4.95 0 9.9 0 15 0 C15 9.9 15 19.8 15 30 C24.9 30 34.8 30 45 30 C45 20.1 45 10.2 45 0 C49.95 0 54.9 0 60 0 C60 24.42 60 48.84 60 74 C55.05 74 50.1 74 45 74 C45 63.77 45 53.54 45 43 C35.1 43 25.2 43 15 43 C15 53.23 15 63.46 15 74 C10.05 74 5.1 74 0 74 C0 49.58 0 25.16 0 0 Z " fill="#12263C" transform="translate(685,726)"/>
<path d="M0 0 C4.95 0 9.9 0 15 0 C15 9.9 15 19.8 15 30 C24.57 30 34.14 30 44 30 C44 20.1 44 10.2 44 0 C48.95 0 53.9 0 59 0 C59 24.42 59 48.84 59 74 C54.05 74 49.1 74 44 74 C44 63.77 44 53.54 44 43 C34.43 43 24.86 43 15 43 C15 53.23 15 63.46 15 74 C10.05 74 5.1 74 0 74 C0 49.58 0 25.16 0 0 Z " fill="#14263A" transform="translate(197,726)"/>
<path d="M0 0 C4.95 0 9.9 0 15 0 C15.01458252 1.40693115 15.02916504 2.8138623 15.04418945 4.26342773 C15.10242818 9.51367839 15.17965923 14.76351161 15.26245117 20.01342773 C15.29558052 22.27996006 15.32364928 24.54657251 15.34643555 26.81323242 C15.38020235 30.08286488 15.43252972 33.35177098 15.48828125 36.62109375 C15.49467117 37.62458359 15.5010611 38.62807343 15.50764465 39.66197205 C15.64308168 46.23271793 16.00658712 53.43569128 20.41596985 58.6860199 C24.26649342 61.88009506 29.27696078 61.34923882 34 61 C36.80067065 60.16513613 36.80067065 60.16513613 39 59 C39.99 58.67 40.98 58.34 42 58 C43.7093275 50.78984227 44.32847477 43.92047111 44.4140625 36.5234375 C44.43342865 35.47217682 44.4527948 34.42091614 44.4727478 33.33779907 C44.53199302 30.01694569 44.57870678 26.69605659 44.625 23.375 C44.66323054 21.10805873 44.70228513 18.84113121 44.7421875 16.57421875 C44.83764864 11.04959223 44.9218804 5.52489784 45 0 C51.93 0.495 51.93 0.495 59 1 C59.12399894 8.81040722 59.21453165 16.6202359 59.2746582 24.43139648 C59.29690216 27.08651565 59.33379633 29.74027268 59.37719727 32.39526367 C59.43814632 36.22071295 59.46628003 40.04524591 59.48828125 43.87109375 C59.51408768 45.04957382 59.5398941 46.22805389 59.56648254 47.44224548 C59.56941074 56.13004591 57.56728148 61.60035284 52.125 68.3125 C42.71910066 75.78189065 32.33811023 75.93842623 20.62890625 74.76171875 C15.03699987 73.647838 10.13380891 70.85822165 6 67 C1.94544322 60.8940879 -0.13091542 54.98447717 -0.11352539 47.68066406 C-0.11344986 46.61986633 -0.11337433 45.5590686 -0.11329651 44.46612549 C-0.10813522 43.32746033 -0.10297394 42.18879517 -0.09765625 41.015625 C-0.09553383 39.25952911 -0.09553383 39.25952911 -0.09336853 37.46795654 C-0.0877709 33.72861171 -0.0752188 29.98932674 -0.0625 26.25 C-0.0574847 23.71484461 -0.05292184 21.17968829 -0.04882812 18.64453125 C-0.03780223 12.42966443 -0.02053919 6.21484237 0 0 Z " fill="#12253B" transform="translate(767,726)"/>
<path d="M0 0 C4.62 0 9.24 0 14 0 C14.01981934 1.41740479 14.03963867 2.83480957 14.06005859 4.29516602 C14.13633061 9.57138344 14.22501474 14.84733285 14.31738281 20.12329102 C14.35558341 22.40351049 14.39045162 24.68378839 14.421875 26.96411133 C14.46771924 30.24842154 14.52568214 33.53233262 14.5859375 36.81640625 C14.59748871 37.83021866 14.60903992 38.84403107 14.62094116 39.88856506 C14.77972143 47.56373616 15.18422035 54.35038548 21 60 C23.32859537 60.93290716 23.32859537 60.93290716 26 61 C27.11375 61.0825 28.2275 61.165 29.375 61.25 C33.61618079 60.95750477 36.31572844 60.12554128 40 58 C43.06408953 53.19959306 44.10183131 48.75772885 44.20532227 43.13964844 C44.22526749 42.17895447 44.24521271 41.2182605 44.26576233 40.22845459 C44.29083107 38.68451019 44.29083107 38.68451019 44.31640625 37.109375 C44.33718735 36.04962463 44.35796844 34.98987427 44.37937927 33.89801025 C44.44472186 30.51540562 44.50368881 27.13272388 44.5625 23.75 C44.60569975 21.45572122 44.64931451 19.16145021 44.69335938 16.8671875 C44.80038765 11.24487052 44.90169833 5.62247605 45 0 C49.62 0 54.24 0 59 0 C59.04957737 7.40152011 59.08580384 14.80294271 59.10986328 22.20458984 C59.11989737 24.7205575 59.13352768 27.23651357 59.15087891 29.75244141 C59.17524097 33.37665678 59.18650931 37.00071744 59.1953125 40.625 C59.20563507 41.74302002 59.21595764 42.86104004 59.22659302 44.01293945 C59.2280057 53.93035367 58.12767992 61.65252379 51 69 C42.35738537 75.95541097 32.71861786 75.58991355 22 75 C14.5870081 73.91831845 8.75647425 70.86770295 4 65 C-0.46549897 57.91944216 -0.53178638 51.99272287 -0.390625 43.75 C-0.38213531 41.86921753 -0.38213531 41.86921753 -0.37347412 39.95043945 C-0.35496138 36.64248624 -0.31912524 33.33533535 -0.2746582 30.02764893 C-0.23348818 26.64222961 -0.21541714 23.25669209 -0.1953125 19.87109375 C-0.15133567 13.24704543 -0.08235254 6.62367788 0 0 Z " fill="#102337" transform="translate(364,726)"/>
<path d="M0 0 C19.14 0 38.28 0 58 0 C58 4.29 58 8.58 58 13 C50.74 13 43.48 13 36 13 C36 33.46 36 53.92 36 75 C31.05 75 26.1 75 21 75 C21 54.87 21 34.74 21 14 C14.07 14 7.14 14 0 14 C0 9.38 0 4.76 0 0 Z " fill="#192B3E" transform="translate(609,726)"/>
<path d="M0 0 C19.14 0 38.28 0 58 0 C58 4.29 58 8.58 58 13 C51.07 13 44.14 13 37 13 C37 33.13 37 53.26 37 74 C32.05 74 27.1 74 22 74 C22 53.87 22 33.74 22 13 C14.74 13 7.48 13 0 13 C0 8.71 0 4.42 0 0 Z " fill="#12263C" transform="translate(122,726)"/>
<path d="M0 0 C5.41521438 3.06970236 8.43061147 8.03454496 10.66015625 13.7265625 C12.92722094 21.98408288 12.32476683 30.57787617 8.125 38.0625 C5.00394603 42.71421441 1.81745784 45.63789759 -3.625 47.3125 C-10.02298775 47.93669393 -14.42465485 47.65736128 -20.1875 44.5625 C-25.86850393 39.80631066 -29.71996373 33.76833654 -30.390625 26.30078125 C-30.55780004 17.64947292 -28.98509382 10.50022252 -22.9140625 4.0703125 C-16.18790058 -1.80366601 -8.34752464 -3.45031019 0 0 Z " fill="#F8F7F5" transform="translate(319.1875,740.4375)"/>
<path d="M0 0 C0.99 0 1.98 0 3 0 C3 51.81 3 103.62 3 157 C32.04 157 61.08 157 91 157 C91.33 157.99 91.66 158.98 92 160 C61.64 160 31.28 160 0 160 C0 107.2 0 54.4 0 0 Z " fill="#263441" transform="translate(665,470)"/>
<path d="M0 0 C2.990625 -0.061875 5.98125 -0.12375 9.0625 -0.1875 C9.99070557 -0.21481201 10.91891113 -0.24212402 11.87524414 -0.27026367 C17.3756135 -0.32492062 21.13669212 0.38810643 26 3 C28.37040308 5.37040308 28.34465793 6.06302753 28.4375 9.3125 C28.35936525 13.04493704 28.10275545 13.86299273 25.75 17 C21.96143595 19.75531931 19.06408766 20.1288114 14.453125 20.09765625 C13.69161133 20.09515869 12.93009766 20.09266113 12.14550781 20.09008789 C10.71223145 20.07643188 10.71223145 20.07643188 9.25 20.0625 C4.67125 20.0315625 4.67125 20.0315625 0 20 C0 13.4 0 6.8 0 0 Z " fill="#F8F8F6" transform="translate(862,768)"/>
<path d="M0 0 C3.58378549 -0.08090486 7.16574647 -0.14045667 10.75 -0.1875 C11.76578125 -0.21263672 12.7815625 -0.23777344 13.828125 -0.26367188 C14.8078125 -0.27333984 15.7875 -0.28300781 16.796875 -0.29296875 C17.69760742 -0.3086792 18.59833984 -0.32438965 19.52636719 -0.34057617 C22.48863313 0.06727627 23.82872761 0.9814433 26 3 C27.04452799 5.64940173 27.2512103 8.16817475 27 11 C24.84109542 14.00704566 23.51231053 14.82922982 20 16 C18.44578271 16.08106686 16.88832973 16.10756898 15.33203125 16.09765625 C14.43935547 16.09443359 13.54667969 16.09121094 12.62695312 16.08789062 C11.23379883 16.07532227 11.23379883 16.07532227 9.8125 16.0625 C8.87212891 16.05798828 7.93175781 16.05347656 6.96289062 16.04882812 C4.64189992 16.03704645 2.32094193 16.01911114 0 16 C0 10.72 0 5.44 0 0 Z " fill="#F9F8F6" transform="translate(862,739)"/>
<path d="M0 0 C4.95 0 9.9 0 15 0 C15 9.9 15 19.8 15 30 C24.9 30 34.8 30 45 30 C45 30.33 45 30.66 45 31 C34.77 31 24.54 31 14 31 C12.61691219 28.23382437 12.88789804 25.98982 12.90234375 22.8984375 C12.90556641 21.68671875 12.90878906 20.475 12.91210938 19.2265625 C12.92048828 17.95554687 12.92886719 16.68453125 12.9375 15.375 C12.94426758 13.456875 12.94426758 13.456875 12.95117188 11.5 C12.96298787 8.33331355 12.98092379 5.16665104 13 2 C9.04 2 5.08 2 1 2 C1 25.43 1 48.86 1 73 C6.94 72.505 6.94 72.505 13 72 C12.99214478 70.69011108 12.99214478 70.69011108 12.98413086 69.35375977 C12.96712249 66.12410727 12.95456631 62.89447755 12.94506836 59.66479492 C12.9400292 58.26504772 12.93319784 56.8653058 12.92456055 55.46557617 C12.9124768 53.45754223 12.90730193 51.44947043 12.90234375 49.44140625 C12.89448853 47.62684937 12.89448853 47.62684937 12.88647461 45.77563477 C13 43 13 43 14 42 C16.29151417 41.91209025 18.58572524 41.89305962 20.87890625 41.90234375 C21.90889992 41.90446617 21.90889992 41.90446617 22.95970154 41.90663147 C25.16067801 41.91224521 27.36155409 41.92479993 29.5625 41.9375 C31.05143083 41.94251324 32.54036324 41.94707645 34.02929688 41.95117188 C37.68623075 41.96221907 41.34310558 41.97949287 45 42 C45 42.33 45 42.66 45 43 C35.1 43 25.2 43 15 43 C15 53.23 15 63.46 15 74 C10.05 74 5.1 74 0 74 C0 49.58 0 25.16 0 0 Z " fill="#050B15" transform="translate(685,726)"/>
<path d="M0 0 C4.95 0 9.9 0 15 0 C15 9.9 15 19.8 15 30 C14.01 30 13.02 30 12 30 C12 21.09 12 12.18 12 3 C8.7 3 5.4 3 2 3 C2 25.77 2 48.54 2 72 C5.3 72 8.6 72 12 72 C12 62.43 12 52.86 12 43 C12.33 43 12.66 43 13 43 C13 52.9 13 62.8 13 73 C9.04 73 5.08 73 1 73 C0.67 48.91 0.34 24.82 0 0 Z " fill="#1F364D" transform="translate(197,726)"/>
<path d="M0 0 C19.14 0 38.28 0 58 0 C58 4.29 58 8.58 58 13 C51.07 13 44.14 13 37 13 C37 12.67 37 12.34 37 12 C43.6 12 50.2 12 57 12 C57 8.7 57 5.4 57 2 C38.85 2 20.7 2 2 2 C2 5.3 2 8.6 2 12 C8.6 12 15.2 12 22 12 C22 12.33 22 12.66 22 13 C14.74 13 7.48 13 0 13 C0 8.71 0 4.42 0 0 Z " fill="#1F252D" transform="translate(122,726)"/>
<path d="M0 0 C9.57 0 19.14 0 29 0 C29 10.56 29 21.12 29 32 C28.34 31.67 27.68 31.34 27 31 C27 21.76 27 12.52 27 3 C18.75 3 10.5 3 2 3 C2 12.24 2 21.48 2 31 C1.67 31 1.34 31 1 31 C0.82770248 28.45861157 0.66216467 25.91704079 0.5 23.375 C0.45230469 22.68148437 0.40460938 21.98796875 0.35546875 21.2734375 C-0.09015844 14.14340244 0 7.19678985 0 0 Z " fill="#ECEDED" transform="translate(212,769)"/>
<path d="M0 0 C4.95 0 9.9 0 15 0 C15 16.17 15 32.34 15 49 C14.67 49 14.34 49 14 49 C14 33.49 14 17.98 14 2 C10.04 2 6.08 2 2 2 C2 18.83 2 35.66 2 53 C1.34 53 0.68 53 0 53 C0 35.51 0 18.02 0 0 Z " fill="#171D26" transform="translate(767,726)"/>
<path d="M0 0 C9.57 0 19.14 0 29 0 C29 9.9 29 19.8 29 30 C28.34 30.33 27.68 30.66 27 31 C27 21.76 27 12.52 27 3 C18.42 3 9.84 3 1 3 C1 12.24 1 21.48 1 31 C0.67 31 0.34 31 0 31 C0 20.77 0 10.54 0 0 Z " fill="#E9EAEA" transform="translate(546,769)"/>
<path d="M0 0 C4.62 0 9.24 0 14 0 C13.67 15.84 13.34 31.68 13 48 C12.67 48 12.34 48 12 48 C12 33.15 12 18.3 12 3 C8.7 3 5.4 3 2 3 C2 18.51 2 34.02 2 50 C1.67 50 1.34 50 1 50 C0.67 33.5 0.34 17 0 0 Z " fill="#213448" transform="translate(409,726)"/>
<path d="M0 0 C4.62 0 9.24 0 14 0 C13.67 16.17 13.34 32.34 13 49 C12.67 49 12.34 49 12 49 C12 33.82 12 18.64 12 3 C8.7 3 5.4 3 2 3 C2 17.85 2 32.7 2 48 C1.67 48 1.34 48 1 48 C0.67 32.16 0.34 16.32 0 0 Z " fill="#203447" transform="translate(364,726)"/>
<path d="M0 0 C0.33 0 0.66 0 1 0 C1 9.24 1 18.48 1 28 C13.375 27.505 13.375 27.505 26 27 C26 18.09 26 9.18 26 0 C26.33 0 26.66 0 27 0 C27.33 9.9 27.66 19.8 28 30 C18.43 30 8.86 30 -1 30 C-0.67 20.1 -0.34 10.2 0 0 Z " fill="#F1F2F1" transform="translate(213,726)"/>
<path d="M0 0 C0 4.29 0 8.58 0 13 C-0.66 13.33 -1.32 13.66 -2 14 C-3 12 -3 12 -3 2 C-12.9 2 -22.8 2 -33 2 C-33 4.64 -33 7.28 -33 10 C-27.39 10 -21.78 10 -16 10 C-16 10.33 -16 10.66 -16 11 C-21.94 11 -27.88 11 -34 11 C-34 7.7 -34 4.4 -34 1 C-29.45839728 0.83156021 -24.91670855 0.66555982 -20.375 0.5 C-19.08980469 0.45230469 -17.80460937 0.40460937 -16.48046875 0.35546875 C-14.61455078 0.28779297 -14.61455078 0.28779297 -12.7109375 0.21875 C-11.56931152 0.17685547 -10.42768555 0.13496094 -9.25146484 0.09179688 C-6.16871977 0.00476338 -3.08397342 0 0 0 Z " fill="#223245" transform="translate(510,760)"/>
<path d="M0 0 C4.95 0 9.9 0 15 0 C15 9.9 15 19.8 15 30 C14.01 29.67 13.02 29.34 12 29 C12 20.42 12 11.84 12 3 C6.06 3.495 6.06 3.495 0 4 C0 2.68 0 1.36 0 0 Z " fill="#2A394A" transform="translate(530,726)"/>
<path d="M0 0 C4.95 0 9.9 0 15 0 C15 9.9 15 19.8 15 30 C14.67 30 14.34 30 14 30 C13.67 21.09 13.34 12.18 13 3 C8.71 2.67 4.42 2.34 0 2 C0 1.34 0 0.68 0 0 Z " fill="#38444F" transform="translate(197,726)"/>
<path d="M0 0 C0.99 0.33 1.98 0.66 3 1 C2.67 6.28 2.34 11.56 2 17 C1.01 17 0.02 17 -1 17 C-1 13.37 -1 9.74 -1 6 C-0.34 6 0.32 6 1 6 C0.67 4.02 0.34 2.04 0 0 Z " fill="#1F3143" transform="translate(455,753)"/>
<path d="M0 0 C0 0.99 0 1.98 0 3 C-3.08809695 4.76462683 -4.23312136 5 -8 5 C-8 4.34 -8 3.68 -8 3 C-5.36 2.01 -2.72 1.02 0 0 Z " fill="#DDE0E2" transform="translate(488,783)"/>
<path d="M0 0 C0.66 0.33 1.32 0.66 2 1 C0.63016497 4.16115776 0.0109362 4.9927092 -3 7 C-3 5.68 -3 4.36 -3 3 C-2.34 3 -1.68 3 -1 3 C-0.67 2.01 -0.34 1.02 0 0 Z " fill="#212D3C" transform="translate(455,731)"/>
<path d="M0 0 C0.66 0.33 1.32 0.66 2 1 C1.2884375 1.61875 1.2884375 1.61875 0.5625 2.25 C-1.16266518 4.182185 -1.56584875 5.48192275 -2 8 C-2.99 7.01 -3.98 6.02 -5 5 C-3.35 3.35 -1.7 1.7 0 0 Z " fill="#E9ECEC" transform="translate(900,756)"/>
</svg>
